<?xml version="1.0"?>
<!DOCTYPE svg PUBLIC "-//W3C//DTD SVG 1.0//EN" "http://www.w3.org/TR/2001/REC-SVG-20010904/DTD/svg10.dtd">

<svg fill-opacity="1" xmlns:xlink="http://www.w3.org/1999/xlink" color-rendering="auto" color-interpolation="auto" stroke="black" text-rendering="auto" stroke-linecap="square" width="1077" stroke-miterlimit="10" stroke-opacity="1" shape-rendering="auto" fill="black" stroke-dasharray="none" font-weight="normal" stroke-width="1" height="382" xmlns="http://www.w3.org/2000/svg" font-family="&apos;Dialog&apos;" font-style="normal" stroke-linejoin="miter" font-size="12" stroke-dashoffset="0" image-rendering="auto">
  <g>
      <g text-rendering="optimizeLegibility" stroke-width="1.1" shape-rendering="geometricPrecision">
        <line x1="821.364462" fill="none" y1="177.292330" x2="865.342913" y2="153.503765" />
        <line x1="821.364462" fill="none" y1="177.292330" x2="814.759930" y2="226.854212" />
        <line x1="821.364462" fill="none" y1="177.292330" x2="776.269223" y2="155.695583" />
        <line x1="865.342913" fill="none" y1="153.503765" x2="910.438152" y2="175.100511" />
        <line x1="865.342913" fill="none" y1="153.503765" x2="871.947445" y2="103.941882" />
        <line x1="814.759930" fill="none" y1="226.854212" x2="765.582867" y2="235.888393" />
        <line x1="814.759930" fill="none" y1="226.854212" x2="850.974289" y2="261.329133" />
        <line x1="776.269223" fill="none" y1="155.695583" x2="741.794302" y2="191.909942" />
        <line x1="910.438152" fill="none" y1="175.100511" x2="944.913073" y2="138.886152" />
        <line x1="910.438152" fill="none" y1="175.100511" x2="924.563245" y2="223.063848" />
        <line x1="871.947445" fill="none" y1="103.941882" x2="921.124508" y2="94.907701" />
        <line x1="765.582867" fill="none" y1="235.888393" x2="743.986120" y2="280.983631" />
        <line x1="850.974289" fill="none" y1="261.329133" x2="887.188648" y2="295.804055" />
        <line x1="741.794302" fill="none" y1="191.909942" x2="692.232420" y2="185.305410" />
        <line x1="944.913073" fill="none" y1="138.886152" x2="993.513089" y2="150.635131" />
        <line x1="924.563245" fill="none" y1="223.063848" x2="973.163261" y2="234.812827" />
        <line x1="887.188648" fill="none" y1="295.804055" x2="921.663570" y2="259.589696" />
        <line x1="887.188648" fill="none" y1="295.804055" x2="852.713726" y2="332.018414" />
        <line x1="887.188648" fill="none" y1="295.804055" x2="923.403007" y2="330.278977" />
        <line x1="692.232420" fill="none" y1="185.305410" x2="642.670537" y2="178.700879" />
        <line x1="993.513089" fill="none" y1="150.635131" x2="1007.638183" y2="198.598468" />
        <line x1="993.513089" fill="none" y1="150.635131" x2="1027.988010" y2="114.420772" />
        <line x1="642.670537" fill="none" y1="178.700879" x2="593.108655" y2="172.096347" />
        <line x1="593.108655" fill="none" y1="172.096347" x2="543.546773" y2="165.491816" />
        <line x1="593.108655" fill="none" y1="172.096347" x2="558.633734" y2="208.310706" />
        <line x1="593.108655" fill="none" y1="172.096347" x2="627.583577" y2="135.881989" />
        <line x1="543.546773" fill="none" y1="165.491816" x2="493.984891" y2="158.887284" />
        <line x1="493.984891" fill="none" y1="158.887284" x2="444.423009" y2="152.282753" />
        <line x1="493.984891" fill="none" y1="158.887284" x2="483.055023" y2="207.678041" />
        <line x1="493.984891" fill="none" y1="158.887284" x2="504.914759" y2="110.096527" />
        <line x1="444.423009" fill="none" y1="152.282753" x2="394.861127" y2="145.678221" />
        <line x1="345.299245" fill="none" y1="139.073690" x2="394.861127" y2="145.678221" />
        <line x1="345.299245" fill="none" y1="139.073690" x2="310.824323" y2="175.288048" />
        <line x1="345.299245" fill="none" y1="139.073690" x2="321.510679" y2="95.095239" />
        <line x1="310.824323" fill="none" y1="175.288048" x2="265.729084" y2="153.691302" />
        <line x1="321.510679" fill="none" y1="95.095239" x2="272.333616" y2="104.129420" />
        <line x1="321.510679" fill="none" y1="95.095239" x2="343.107426" y2="50.000000" />
        <line x1="265.729084" fill="none" y1="153.691302" x2="221.750633" y2="177.479867" />
        <line x1="272.333616" fill="none" y1="104.129420" x2="236.119257" y2="69.654498" />
        <line x1="221.750633" fill="none" y1="177.479867" x2="179.159906" y2="151.287694" />
        <line x1="221.750633" fill="none" y1="177.479867" x2="220.362909" y2="227.460605" />
        <line x1="179.159906" fill="none" y1="151.287694" x2="135.181455" y2="175.076259" />
        <line x1="220.362909" fill="none" y1="227.460605" x2="176.384458" y2="251.249171" />
        <line x1="135.181455" fill="none" y1="175.076259" x2="133.793731" y2="225.056997" />
        <line x1="135.181455" fill="none" y1="175.076259" x2="92.590727" y2="148.884085" />
        <line x1="92.590727" fill="none" y1="148.884085" x2="113.844524" y2="103.626201" />
        <line x1="92.590727" fill="none" y1="148.884085" x2="50.000000" y2="122.691912" />
        <line x1="765.582867" fill="none" y1="235.888393" x2="741.794302" y2="191.909942" />
        <line x1="944.913073" fill="none" y1="138.886152" x2="921.124508" y2="94.907701" />
        <line x1="973.163261" fill="none" y1="234.812827" x2="1007.638183" y2="198.598468" />
        <line x1="265.729084" fill="none" y1="153.691302" x2="272.333616" y2="104.129420" />
        <line x1="176.384458" fill="none" y1="251.249171" x2="133.793731" y2="225.056997" />
      </g>
      <g font-size="15px" fill="white" text-rendering="optimizeLegibility" font-family="Helvetica" shape-rendering="geometricPrecision" stroke="rgb(0,0,0)">
        <rect x="826" y="175" fill="white" width="15" height="11" stroke="none" />
        <rect x="814" y="169" fill="white" width="15" height="16" stroke="none" />
        <rect x="870" y="151" fill="white" width="15" height="11" stroke="none" />
        <rect x="858" y="145" fill="white" width="15" height="16" stroke="none" />
        <rect x="819" y="224" fill="white" width="15" height="11" stroke="none" />
        <rect x="807" y="218" fill="white" width="15" height="16" stroke="none" />
        <rect x="781" y="153" fill="white" width="15" height="11" stroke="none" />
        <rect x="769" y="147" fill="white" width="15" height="16" stroke="none" />
        <rect x="915" y="173" fill="white" width="15" height="11" stroke="none" />
        <rect x="903" y="167" fill="white" width="15" height="16" stroke="none" />
        <rect x="876" y="101" fill="white" width="15" height="11" stroke="none" />
        <rect x="864" y="95" fill="white" width="15" height="16" stroke="none" />
        <rect x="770" y="233" fill="white" width="15" height="11" stroke="none" />
        <rect x="758" y="227" fill="white" width="15" height="16" stroke="none" />
        <rect x="855" y="259" fill="white" width="15" height="11" stroke="none" />
        <rect x="843" y="253" fill="white" width="15" height="16" stroke="none" />
        <rect x="746" y="189" fill="white" width="15" height="11" stroke="none" />
        <rect x="734" y="183" fill="white" width="15" height="16" stroke="none" />
        <rect x="949" y="136" fill="white" width="15" height="11" stroke="none" />
        <rect x="937" y="130" fill="white" width="15" height="16" stroke="none" />
        <rect x="929" y="221" fill="white" width="15" height="11" stroke="none" />
        <rect x="917" y="215" fill="white" width="15" height="16" stroke="none" />
        <rect x="926" y="92" fill="white" width="15" height="11" stroke="none" />
        <rect x="914" y="86" fill="white" width="15" height="16" stroke="none" />
        <rect x="748" y="278" fill="white" width="15" height="11" stroke="none" />
        <rect x="736" y="272" fill="white" width="15" height="16" stroke="none" />
        <rect x="892" y="293" fill="white" width="15" height="11" stroke="none" />
        <rect x="880" y="287" fill="white" width="15" height="16" stroke="none" />
        <rect x="697" y="183" fill="white" width="15" height="11" stroke="none" />
        <rect x="685" y="177" fill="white" width="15" height="16" stroke="none" />
        <rect x="998" y="148" fill="white" width="15" height="11" stroke="none" />
        <rect x="986" y="142" fill="white" width="15" height="16" stroke="none" />
        <rect x="978" y="232" fill="white" width="15" height="11" stroke="none" />
        <rect x="966" y="226" fill="white" width="15" height="16" stroke="none" />
        <rect x="926" y="257" fill="white" width="15" height="11" stroke="none" />
        <rect x="914" y="251" fill="white" width="15" height="16" stroke="none" />
        <rect x="857" y="330" fill="white" width="15" height="11" stroke="none" />
        <rect x="845" y="324" fill="white" width="15" height="16" stroke="none" />
        <rect x="928" y="328" fill="white" width="15" height="11" stroke="none" />
        <rect x="916" y="322" fill="white" width="15" height="16" stroke="none" />
        <rect x="647" y="176" fill="white" width="15" height="11" stroke="none" />
        <rect x="635" y="170" fill="white" width="15" height="16" stroke="none" />
        <rect x="1012" y="196" fill="white" width="15" height="11" stroke="none" />
        <rect x="1000" y="190" fill="white" width="15" height="16" stroke="none" />
        <rect x="1032" y="112" fill="white" width="15" height="11" stroke="none" />
        <rect x="1020" y="106" fill="white" width="15" height="16" stroke="none" />
        <rect x="598" y="170" fill="white" width="15" height="11" stroke="none" />
        <rect x="586" y="164" fill="white" width="15" height="16" stroke="none" />
        <rect x="548" y="163" fill="white" width="15" height="11" stroke="none" />
        <rect x="536" y="157" fill="white" width="15" height="16" stroke="none" />
        <rect x="563" y="206" fill="white" width="15" height="11" stroke="none" />
        <rect x="551" y="200" fill="white" width="15" height="16" stroke="none" />
        <rect x="632" y="133" fill="white" width="15" height="11" stroke="none" />
        <rect x="620" y="127" fill="white" width="15" height="16" stroke="none" />
        <rect x="498" y="156" fill="white" width="15" height="11" stroke="none" />
        <rect x="486" y="150" fill="white" width="15" height="16" stroke="none" />
        <rect x="449" y="150" fill="white" width="15" height="11" stroke="none" />
        <rect x="437" y="144" fill="white" width="15" height="16" stroke="none" />
        <rect x="488" y="205" fill="white" width="15" height="11" stroke="none" />
        <rect x="476" y="199" fill="white" width="15" height="16" stroke="none" />
        <rect x="509" y="108" fill="white" width="15" height="11" stroke="none" />
        <rect x="497" y="102" fill="white" width="15" height="16" stroke="none" />
        <rect x="399" y="143" fill="white" width="15" height="11" stroke="none" />
        <rect x="387" y="137" fill="white" width="15" height="16" stroke="none" />
        <rect x="350" y="137" fill="white" width="15" height="11" stroke="none" />
        <rect x="338" y="131" fill="white" width="15" height="16" stroke="none" />
        <rect x="315" y="173" fill="white" width="15" height="11" stroke="none" />
        <rect x="303" y="167" fill="white" width="15" height="16" stroke="none" />
        <rect x="326" y="93" fill="white" width="15" height="11" stroke="none" />
        <rect x="314" y="87" fill="white" width="15" height="16" stroke="none" />
        <rect x="270" y="151" fill="white" width="15" height="11" stroke="none" />
        <rect x="258" y="145" fill="white" width="15" height="16" stroke="none" />
        <rect x="277" y="102" fill="white" width="15" height="11" stroke="none" />
        <rect x="265" y="96" fill="white" width="15" height="16" stroke="none" />
        <rect x="348" y="48" fill="white" width="15" height="11" stroke="none" />
        <rect x="336" y="42" fill="white" width="15" height="16" stroke="none" />
        <rect x="226" y="175" fill="white" width="15" height="11" stroke="none" />
        <rect x="214" y="169" fill="white" width="15" height="16" stroke="none" />
        <rect x="241" y="67" fill="white" width="15" height="11" stroke="none" />
        <rect x="229" y="61" fill="white" width="15" height="16" stroke="none" />
        <rect x="184" y="149" fill="white" width="15" height="11" stroke="none" />
        <rect x="172" y="143" fill="white" width="15" height="16" stroke="none" />
        <rect x="225" y="225" fill="white" width="15" height="11" stroke="none" />
        <rect x="213" y="219" fill="white" width="15" height="16" stroke="none" />
        <rect x="140" y="173" fill="white" width="15" height="11" stroke="none" />
        <rect x="128" y="167" fill="white" width="15" height="16" stroke="none" />
        <rect x="181" y="249" fill="white" width="15" height="11" stroke="none" />
        <rect x="169" y="243" fill="white" width="15" height="16" stroke="none" />
        <rect x="138" y="223" fill="white" width="15" height="11" stroke="none" />
        <rect x="126" y="217" fill="white" width="15" height="16" stroke="none" />
        <rect x="97" y="146" fill="white" width="15" height="11" stroke="none" />
        <rect x="85" y="140" fill="white" width="15" height="16" stroke="none" />
        <rect x="118" y="101" fill="white" width="15" height="11" stroke="none" />
        <rect x="106" y="95" fill="white" width="15" height="16" stroke="none" />
        <rect x="55" y="120" fill="white" width="15" height="11" stroke="none" />
        <rect x="43" y="114" fill="white" width="15" height="16" stroke="none" />
      </g>
      <g font-size="15px" fill="rgb(0,0,0)" text-rendering="optimizeLegibility" font-family="Helvetica" shape-rendering="geometricPrecision" stroke="rgb(0,0,0)">
        <text font-size="11px" fill="blue" xml:space="preserve" x="827" y="185" stroke="none">1</text>
        <text fill="black" xml:space="preserve" x="816" y="182" stroke="none">C</text>
        <text font-size="11px" fill="blue" xml:space="preserve" x="871" y="161" stroke="none">2</text>
        <text fill="blue" xml:space="preserve" x="860" y="158" stroke="none">N</text>
        <text font-size="11px" fill="blue" xml:space="preserve" x="820" y="234" stroke="none">3</text>
        <text fill="black" xml:space="preserve" x="809" y="231" stroke="none">C</text>
        <text font-size="11px" fill="blue" xml:space="preserve" x="782" y="163" stroke="none">4</text>
        <text fill="red" xml:space="preserve" x="771" y="160" stroke="none">O</text>
        <text font-size="11px" fill="blue" xml:space="preserve" x="916" y="183" stroke="none">5</text>
        <text fill="black" xml:space="preserve" x="905" y="180" stroke="none">C</text>
        <text font-size="11px" fill="blue" xml:space="preserve" x="877" y="111" stroke="none">6</text>
        <text fill="black" xml:space="preserve" x="866" y="108" stroke="none">C</text>
        <text font-size="11px" fill="blue" xml:space="preserve" x="771" y="243" stroke="none">7</text>
        <text fill="black" xml:space="preserve" x="760" y="240" stroke="none">C</text>
        <text font-size="11px" fill="blue" xml:space="preserve" x="856" y="269" stroke="none">8</text>
        <text fill="red" xml:space="preserve" x="845" y="266" stroke="none">O</text>
        <text font-size="11px" fill="blue" xml:space="preserve" x="747" y="199" stroke="none">9</text>
        <text fill="black" xml:space="preserve" x="736" y="196" stroke="none">C</text>
        <text font-size="11px" fill="blue" xml:space="preserve" x="950" y="146" stroke="none">10</text>
        <text fill="black" xml:space="preserve" x="939" y="143" stroke="none">C</text>
        <text font-size="11px" fill="blue" xml:space="preserve" x="930" y="231" stroke="none">11</text>
        <text fill="blue" xml:space="preserve" x="919" y="228" stroke="none">N</text>
        <text font-size="11px" fill="blue" xml:space="preserve" x="927" y="102" stroke="none">12</text>
        <text fill="blue" xml:space="preserve" x="916" y="99" stroke="none">N</text>
        <text font-size="11px" fill="blue" xml:space="preserve" x="749" y="288" stroke="none">13</text>
        <text fill="red" xml:space="preserve" x="738" y="285" stroke="none">O</text>
        <text font-size="11px" fill="blue" xml:space="preserve" x="893" y="303" stroke="none">14</text>
        <text fill="brown" xml:space="preserve" x="882" y="300" stroke="none">P</text>
        <text font-size="11px" fill="blue" xml:space="preserve" x="698" y="193" stroke="none">15</text>
        <text fill="black" xml:space="preserve" x="687" y="190" stroke="none">C</text>
        <text font-size="11px" fill="blue" xml:space="preserve" x="999" y="158" stroke="none">16</text>
        <text fill="black" xml:space="preserve" x="988" y="155" stroke="none">C</text>
        <text font-size="11px" fill="blue" xml:space="preserve" x="979" y="242" stroke="none">17</text>
        <text fill="black" xml:space="preserve" x="968" y="239" stroke="none">C</text>
        <text font-size="11px" fill="blue" xml:space="preserve" x="927" y="267" stroke="none">18</text>
        <text fill="red" xml:space="preserve" x="916" y="264" stroke="none">O</text>
        <text font-size="11px" fill="blue" xml:space="preserve" x="858" y="340" stroke="none">19</text>
        <text fill="red" xml:space="preserve" x="847" y="337" stroke="none">O</text>
        <text font-size="11px" fill="blue" xml:space="preserve" x="929" y="338" stroke="none">20</text>
        <text fill="red" xml:space="preserve" x="918" y="335" stroke="none">O</text>
        <text font-size="11px" fill="blue" xml:space="preserve" x="648" y="186" stroke="none">21</text>
        <text fill="red" xml:space="preserve" x="637" y="183" stroke="none">O</text>
        <text font-size="11px" fill="blue" xml:space="preserve" x="1013" y="206" stroke="none">22</text>
        <text fill="blue" xml:space="preserve" x="1002" y="203" stroke="none">N</text>
        <text font-size="11px" fill="blue" xml:space="preserve" x="1033" y="122" stroke="none">23</text>
        <text fill="blue" xml:space="preserve" x="1022" y="119" stroke="none">N</text>
        <text font-size="11px" fill="blue" xml:space="preserve" x="599" y="180" stroke="none">24</text>
        <text fill="brown" xml:space="preserve" x="588" y="177" stroke="none">P</text>
        <text font-size="11px" fill="blue" xml:space="preserve" x="549" y="173" stroke="none">25</text>
        <text fill="red" xml:space="preserve" x="538" y="170" stroke="none">O</text>
        <text font-size="11px" fill="blue" xml:space="preserve" x="564" y="216" stroke="none">26</text>
        <text fill="red" xml:space="preserve" x="553" y="213" stroke="none">O</text>
        <text font-size="11px" fill="blue" xml:space="preserve" x="633" y="143" stroke="none">27</text>
        <text fill="red" xml:space="preserve" x="622" y="140" stroke="none">O</text>
        <text font-size="11px" fill="blue" xml:space="preserve" x="499" y="166" stroke="none">28</text>
        <text fill="brown" xml:space="preserve" x="488" y="163" stroke="none">P</text>
        <text font-size="11px" fill="blue" xml:space="preserve" x="450" y="160" stroke="none">29</text>
        <text fill="red" xml:space="preserve" x="439" y="157" stroke="none">O</text>
        <text font-size="11px" fill="blue" xml:space="preserve" x="489" y="215" stroke="none">30</text>
        <text fill="red" xml:space="preserve" x="478" y="212" stroke="none">O</text>
        <text font-size="11px" fill="blue" xml:space="preserve" x="510" y="118" stroke="none">31</text>
        <text fill="red" xml:space="preserve" x="499" y="115" stroke="none">O</text>
        <text font-size="11px" fill="blue" xml:space="preserve" x="400" y="153" stroke="none">32</text>
        <text fill="black" xml:space="preserve" x="389" y="150" stroke="none">C</text>
        <text font-size="11px" fill="blue" xml:space="preserve" x="351" y="147" stroke="none">33</text>
        <text fill="black" xml:space="preserve" x="340" y="144" stroke="none">C</text>
        <text font-size="11px" fill="blue" xml:space="preserve" x="316" y="183" stroke="none">34</text>
        <text fill="red" xml:space="preserve" x="305" y="180" stroke="none">O</text>
        <text font-size="11px" fill="blue" xml:space="preserve" x="327" y="103" stroke="none">35</text>
        <text fill="black" xml:space="preserve" x="316" y="100" stroke="none">C</text>
        <text font-size="11px" fill="blue" xml:space="preserve" x="271" y="161" stroke="none">36</text>
        <text fill="black" xml:space="preserve" x="260" y="158" stroke="none">C</text>
        <text font-size="11px" fill="blue" xml:space="preserve" x="278" y="112" stroke="none">37</text>
        <text fill="black" xml:space="preserve" x="267" y="109" stroke="none">C</text>
        <text font-size="11px" fill="blue" xml:space="preserve" x="349" y="58" stroke="none">38</text>
        <text fill="red" xml:space="preserve" x="338" y="55" stroke="none">O</text>
        <text font-size="11px" fill="blue" xml:space="preserve" x="227" y="185" stroke="none">39</text>
        <text fill="blue" xml:space="preserve" x="216" y="182" stroke="none">N</text>
        <text font-size="11px" fill="blue" xml:space="preserve" x="242" y="77" stroke="none">40</text>
        <text fill="red" xml:space="preserve" x="231" y="74" stroke="none">O</text>
        <text font-size="11px" fill="blue" xml:space="preserve" x="185" y="159" stroke="none">41</text>
        <text fill="black" xml:space="preserve" x="174" y="156" stroke="none">C</text>
        <text font-size="11px" fill="blue" xml:space="preserve" x="226" y="235" stroke="none">42</text>
        <text fill="black" xml:space="preserve" x="215" y="232" stroke="none">C</text>
        <text font-size="11px" fill="blue" xml:space="preserve" x="141" y="183" stroke="none">43</text>
        <text fill="black" xml:space="preserve" x="130" y="180" stroke="none">C</text>
        <text font-size="11px" fill="blue" xml:space="preserve" x="182" y="259" stroke="none">44</text>
        <text fill="black" xml:space="preserve" x="171" y="256" stroke="none">C</text>
        <text font-size="11px" fill="blue" xml:space="preserve" x="139" y="233" stroke="none">45</text>
        <text fill="black" xml:space="preserve" x="128" y="230" stroke="none">C</text>
        <text font-size="11px" fill="blue" xml:space="preserve" x="98" y="156" stroke="none">46</text>
        <text fill="black" xml:space="preserve" x="87" y="153" stroke="none">C</text>
        <text font-size="11px" fill="blue" xml:space="preserve" x="119" y="111" stroke="none">47</text>
        <text fill="blue" xml:space="preserve" x="108" y="108" stroke="none">N</text>
        <text font-size="11px" fill="blue" xml:space="preserve" x="56" y="130" stroke="none">48</text>
        <text fill="red" xml:space="preserve" x="45" y="127" stroke="none">O</text>
      </g>
  </g>
</svg>
