<?xml version="1.0"?>
<!DOCTYPE svg PUBLIC "-//W3C//DTD SVG 1.0//EN" "http://www.w3.org/TR/2001/REC-SVG-20010904/DTD/svg10.dtd">

<svg fill-opacity="1" xmlns:xlink="http://www.w3.org/1999/xlink" color-rendering="auto" color-interpolation="auto" stroke="black" text-rendering="auto" stroke-linecap="square" width="501" stroke-miterlimit="10" stroke-opacity="1" shape-rendering="auto" fill="black" stroke-dasharray="none" font-weight="normal" stroke-width="1" height="449" xmlns="http://www.w3.org/2000/svg" font-family="&apos;Dialog&apos;" font-style="normal" stroke-linejoin="miter" font-size="12" stroke-dashoffset="0" image-rendering="auto">
  <g>
      <g text-rendering="optimizeLegibility" stroke-width="1.1" shape-rendering="geometricPrecision">
        <line x1="181.056587" fill="none" y1="198.647603" x2="225.635002" y2="176.003289" />
        <line x1="181.056587" fill="none" y1="198.647603" x2="225.635002" y2="176.003289" />
        <line x1="181.056587" fill="none" y1="198.647603" x2="178.377932" y2="248.575800" />
        <line x1="181.056587" fill="none" y1="198.647603" x2="139.156829" y2="171.363721" />
        <line x1="225.635002" fill="none" y1="176.003289" x2="267.534760" y2="203.287171" />
        <line x1="225.635002" fill="none" y1="176.003289" x2="260.946512" y2="211.402403" />
        <line x1="225.635002" fill="none" y1="176.003289" x2="267.534760" y2="203.287171" />
        <line x1="225.635002" fill="none" y1="176.003289" x2="238.635778" y2="127.723067" />
        <line x1="220.277690" fill="none" y1="275.859682" x2="178.377932" y2="248.575800" />
        <line x1="178.377932" fill="none" y1="248.575800" x2="220.277690" y2="275.859682" />
        <line x1="139.156829" fill="none" y1="171.363721" x2="141.835485" y2="121.435525" />
        <line x1="139.156829" fill="none" y1="171.363721" x2="94.578414" y2="194.008035" />
        <line x1="267.534760" fill="none" y1="203.287171" x2="264.856105" y2="253.215368" />
        <line x1="267.534760" fill="none" y1="203.287171" x2="186.413899" y2="98.791210" />
        <line x1="267.534760" fill="none" y1="203.287171" x2="316.325971" y2="214.215016" />
        <line x1="260.946512" fill="none" y1="211.402403" x2="310.640744" y2="205.881228" />
        <line x1="267.534760" fill="none" y1="203.287171" x2="264.856105" y2="253.215368" />
        <line x1="267.534760" fill="none" y1="203.287171" x2="306.431012" y2="171.869316" />
        <line x1="238.635778" fill="none" y1="127.723067" x2="288.570459" y2="125.168132" />
        <line x1="220.277690" fill="none" y1="275.859682" x2="217.599034" y2="325.787879" />
        <line x1="94.578414" fill="none" y1="194.008035" x2="50.000000" y2="216.652350" />
        <line x1="186.413899" fill="none" y1="98.791210" x2="197.341743" y2="50.000000" />
        <line x1="316.325971" fill="none" y1="214.215016" x2="358.852354" y2="240.511531" />
        <line x1="310.640744" fill="none" y1="205.881228" x2="360.334975" y2="200.360054" />
        <line x1="264.856105" fill="none" y1="253.215368" x2="306.755863" y2="280.499250" />
        <line x1="264.856105" fill="none" y1="253.215368" x2="253.506711" y2="301.910247" />
        <line x1="306.431012" fill="none" y1="171.869316" x2="354.711234" y2="184.870093" />
        <line x1="288.570459" fill="none" y1="125.168132" x2="351.334278" y2="257.854936" />
        <line x1="288.570459" fill="none" y1="125.168132" x2="294.195572" y2="75.485558" />
        <line x1="217.599034" fill="none" y1="325.787879" x2="214.920379" y2="375.716075" />
        <line x1="358.852354" fill="none" y1="240.511531" x2="402.888996" y2="216.830860" />
        <line x1="306.755863" fill="none" y1="280.499250" x2="304.077207" y2="330.427446" />
        <line x1="253.506711" fill="none" y1="301.910247" x2="242.157318" y2="350.605126" />
        <line x1="354.711234" fill="none" y1="184.870093" x2="402.991455" y2="197.870869" />
        <line x1="351.334278" fill="none" y1="257.854936" x2="398.644791" y2="274.032555" />
        <line x1="242.157318" fill="none" y1="350.605126" x2="289.690966" y2="366.114877" />
        <line x1="242.157318" fill="none" y1="350.605126" x2="230.807925" y2="399.300006" />
        <line x1="402.991455" fill="none" y1="197.870869" x2="387.481704" y2="245.404516" />
        <line x1="402.991455" fill="none" y1="197.870869" x2="451.271677" y2="210.871646" />
        <line x1="398.644791" fill="none" y1="274.032555" x2="445.955304" y2="290.210174" />
        <line x1="387.481704" fill="none" y1="245.404516" x2="420.892175" y2="282.603178" />
        <line x1="387.481704" fill="none" y1="245.404516" x2="338.561483" y2="255.739502" />
        <line x1="420.892175" fill="none" y1="282.603178" x2="405.382424" y2="330.136826" />
        <line x1="338.561483" fill="none" y1="255.739502" x2="323.051732" y2="303.273149" />
        <line x1="405.382424" fill="none" y1="330.136826" x2="356.462203" y2="340.471811" />
        <line x1="260.946512" fill="none" y1="211.402403" x2="220.277690" y2="275.859682" />
        <line x1="220.277690" fill="none" y1="275.859682" x2="264.856105" y2="253.215368" />
        <line x1="220.277690" fill="none" y1="275.859682" x2="264.856105" y2="253.215368" />
        <line x1="141.835485" fill="none" y1="121.435525" x2="186.413899" y2="98.791210" />
        <line x1="306.431012" fill="none" y1="171.869316" x2="288.570459" y2="125.168132" />
        <line x1="306.755863" fill="none" y1="280.499250" x2="351.334278" y2="257.854936" />
        <line x1="323.051732" fill="none" y1="303.273149" x2="356.462203" y2="340.471811" />
      </g>
      <g font-size="15px" fill="white" text-rendering="optimizeLegibility" font-family="Helvetica" shape-rendering="geometricPrecision" stroke="rgb(0,0,0)">
        <rect x="186" y="196" fill="white" width="15" height="11" stroke="none" />
        <rect x="174" y="190" fill="white" width="15" height="16" stroke="none" />
        <rect x="230" y="174" fill="white" width="15" height="11" stroke="none" />
        <rect x="218" y="168" fill="white" width="15" height="16" stroke="none" />
        <rect x="230" y="174" fill="white" width="15" height="11" stroke="none" />
        <rect x="218" y="168" fill="white" width="15" height="16" stroke="none" />
        <rect x="183" y="246" fill="white" width="15" height="11" stroke="none" />
        <rect x="171" y="240" fill="white" width="15" height="16" stroke="none" />
        <rect x="144" y="169" fill="white" width="15" height="11" stroke="none" />
        <rect x="132" y="163" fill="white" width="15" height="16" stroke="none" />
        <rect x="272" y="201" fill="white" width="15" height="11" stroke="none" />
        <rect x="260" y="195" fill="white" width="15" height="16" stroke="none" />
        <rect x="265" y="209" fill="white" width="15" height="11" stroke="none" />
        <rect x="253" y="203" fill="white" width="15" height="16" stroke="none" />
        <rect x="272" y="201" fill="white" width="15" height="11" stroke="none" />
        <rect x="260" y="195" fill="white" width="15" height="16" stroke="none" />
        <rect x="243" y="125" fill="white" width="15" height="11" stroke="none" />
        <rect x="231" y="119" fill="white" width="15" height="16" stroke="none" />
        <rect x="225" y="273" fill="white" width="15" height="11" stroke="none" />
        <rect x="213" y="267" fill="white" width="15" height="16" stroke="none" />
        <rect x="225" y="273" fill="white" width="15" height="11" stroke="none" />
        <rect x="213" y="267" fill="white" width="15" height="16" stroke="none" />
        <rect x="146" y="119" fill="white" width="15" height="11" stroke="none" />
        <rect x="134" y="113" fill="white" width="15" height="16" stroke="none" />
        <rect x="99" y="192" fill="white" width="15" height="11" stroke="none" />
        <rect x="87" y="186" fill="white" width="15" height="16" stroke="none" />
        <rect x="269" y="251" fill="white" width="15" height="11" stroke="none" />
        <rect x="257" y="245" fill="white" width="15" height="16" stroke="none" />
        <rect x="191" y="96" fill="white" width="15" height="11" stroke="none" />
        <rect x="179" y="90" fill="white" width="15" height="16" stroke="none" />
        <rect x="321" y="212" fill="white" width="15" height="11" stroke="none" />
        <rect x="309" y="206" fill="white" width="15" height="16" stroke="none" />
        <rect x="315" y="203" fill="white" width="15" height="11" stroke="none" />
        <rect x="303" y="197" fill="white" width="15" height="16" stroke="none" />
        <rect x="269" y="251" fill="white" width="15" height="11" stroke="none" />
        <rect x="257" y="245" fill="white" width="15" height="16" stroke="none" />
        <rect x="311" y="169" fill="white" width="15" height="11" stroke="none" />
        <rect x="299" y="163" fill="white" width="15" height="16" stroke="none" />
        <rect x="293" y="123" fill="white" width="15" height="11" stroke="none" />
        <rect x="281" y="117" fill="white" width="15" height="16" stroke="none" />
        <rect x="222" y="323" fill="white" width="15" height="11" stroke="none" />
        <rect x="210" y="317" fill="white" width="15" height="16" stroke="none" />
        <rect x="55" y="214" fill="white" width="15" height="11" stroke="none" />
        <rect x="43" y="208" fill="white" width="15" height="16" stroke="none" />
        <rect x="202" y="48" fill="white" width="15" height="11" stroke="none" />
        <rect x="190" y="42" fill="white" width="15" height="16" stroke="none" />
        <rect x="363" y="238" fill="white" width="15" height="11" stroke="none" />
        <rect x="351" y="232" fill="white" width="15" height="16" stroke="none" />
        <rect x="365" y="198" fill="white" width="15" height="11" stroke="none" />
        <rect x="353" y="192" fill="white" width="15" height="16" stroke="none" />
        <rect x="311" y="278" fill="white" width="15" height="11" stroke="none" />
        <rect x="299" y="272" fill="white" width="15" height="16" stroke="none" />
        <rect x="258" y="299" fill="white" width="15" height="11" stroke="none" />
        <rect x="246" y="293" fill="white" width="15" height="16" stroke="none" />
        <rect x="359" y="182" fill="white" width="15" height="11" stroke="none" />
        <rect x="347" y="176" fill="white" width="15" height="16" stroke="none" />
        <rect x="356" y="255" fill="white" width="15" height="11" stroke="none" />
        <rect x="344" y="249" fill="white" width="15" height="16" stroke="none" />
        <rect x="299" y="73" fill="white" width="15" height="11" stroke="none" />
        <rect x="287" y="67" fill="white" width="15" height="16" stroke="none" />
        <rect x="219" y="373" fill="white" width="15" height="11" stroke="none" />
        <rect x="207" y="367" fill="white" width="15" height="16" stroke="none" />
        <rect x="407" y="214" fill="white" width="15" height="11" stroke="none" />
        <rect x="395" y="208" fill="white" width="15" height="16" stroke="none" />
        <rect x="309" y="328" fill="white" width="15" height="11" stroke="none" />
        <rect x="297" y="322" fill="white" width="15" height="16" stroke="none" />
        <rect x="247" y="348" fill="white" width="15" height="11" stroke="none" />
        <rect x="235" y="342" fill="white" width="15" height="16" stroke="none" />
        <rect x="407" y="195" fill="white" width="15" height="11" stroke="none" />
        <rect x="395" y="189" fill="white" width="15" height="16" stroke="none" />
        <rect x="403" y="272" fill="white" width="15" height="11" stroke="none" />
        <rect x="391" y="266" fill="white" width="15" height="16" stroke="none" />
        <rect x="294" y="364" fill="white" width="15" height="11" stroke="none" />
        <rect x="282" y="358" fill="white" width="15" height="16" stroke="none" />
        <rect x="235" y="397" fill="white" width="15" height="11" stroke="none" />
        <rect x="223" y="391" fill="white" width="15" height="16" stroke="none" />
        <rect x="392" y="243" fill="white" width="15" height="11" stroke="none" />
        <rect x="380" y="237" fill="white" width="15" height="16" stroke="none" />
        <rect x="456" y="208" fill="white" width="15" height="11" stroke="none" />
        <rect x="444" y="202" fill="white" width="15" height="16" stroke="none" />
        <rect x="450" y="288" fill="white" width="15" height="11" stroke="none" />
        <rect x="438" y="282" fill="white" width="15" height="16" stroke="none" />
        <rect x="425" y="280" fill="white" width="15" height="11" stroke="none" />
        <rect x="413" y="274" fill="white" width="15" height="16" stroke="none" />
        <rect x="343" y="253" fill="white" width="15" height="11" stroke="none" />
        <rect x="331" y="247" fill="white" width="15" height="16" stroke="none" />
        <rect x="410" y="328" fill="white" width="15" height="11" stroke="none" />
        <rect x="398" y="322" fill="white" width="15" height="16" stroke="none" />
        <rect x="328" y="301" fill="white" width="15" height="11" stroke="none" />
        <rect x="316" y="295" fill="white" width="15" height="16" stroke="none" />
        <rect x="361" y="338" fill="white" width="15" height="11" stroke="none" />
        <rect x="349" y="332" fill="white" width="15" height="16" stroke="none" />
      </g>
      <g font-size="15px" fill="rgb(0,0,0)" text-rendering="optimizeLegibility" font-family="Helvetica" shape-rendering="geometricPrecision" stroke="rgb(0,0,0)">
        <text font-size="11px" fill="blue" xml:space="preserve" x="187" y="206" stroke="none">1</text>
        <text fill="black" xml:space="preserve" x="176" y="203" stroke="none">C</text>
        <text font-size="11px" fill="blue" xml:space="preserve" x="231" y="184" stroke="none">2</text>
        <text fill="black" xml:space="preserve" x="220" y="181" stroke="none">C</text>
        <text font-size="11px" fill="blue" xml:space="preserve" x="231" y="184" stroke="none">3</text>
        <text fill="black" xml:space="preserve" x="220" y="181" stroke="none">C</text>
        <text font-size="11px" fill="blue" xml:space="preserve" x="184" y="256" stroke="none">4</text>
        <text fill="black" xml:space="preserve" x="173" y="253" stroke="none">C</text>
        <text font-size="11px" fill="blue" xml:space="preserve" x="145" y="179" stroke="none">5</text>
        <text fill="black" xml:space="preserve" x="134" y="176" stroke="none">C</text>
        <text font-size="11px" fill="blue" xml:space="preserve" x="273" y="211" stroke="none">6</text>
        <text fill="black" xml:space="preserve" x="262" y="208" stroke="none">C</text>
        <text font-size="11px" fill="blue" xml:space="preserve" x="266" y="219" stroke="none">7</text>
        <text fill="black" xml:space="preserve" x="255" y="216" stroke="none">C</text>
        <text font-size="11px" fill="blue" xml:space="preserve" x="273" y="211" stroke="none">8</text>
        <text fill="black" xml:space="preserve" x="262" y="208" stroke="none">C</text>
        <text font-size="11px" fill="blue" xml:space="preserve" x="244" y="135" stroke="none">9</text>
        <text fill="black" xml:space="preserve" x="233" y="132" stroke="none">C</text>
        <text font-size="11px" fill="blue" xml:space="preserve" x="226" y="283" stroke="none">10</text>
        <text fill="black" xml:space="preserve" x="215" y="280" stroke="none">C</text>
        <text font-size="11px" fill="blue" xml:space="preserve" x="226" y="283" stroke="none">11</text>
        <text fill="blue" xml:space="preserve" x="215" y="280" stroke="none">N</text>
        <text font-size="11px" fill="blue" xml:space="preserve" x="147" y="129" stroke="none">12</text>
        <text fill="black" xml:space="preserve" x="136" y="126" stroke="none">C</text>
        <text font-size="11px" fill="blue" xml:space="preserve" x="100" y="202" stroke="none">13</text>
        <text fill="red" xml:space="preserve" x="89" y="199" stroke="none">O</text>
        <text font-size="11px" fill="blue" xml:space="preserve" x="270" y="261" stroke="none">14</text>
        <text fill="black" xml:space="preserve" x="259" y="258" stroke="none">C</text>
        <text font-size="11px" fill="blue" xml:space="preserve" x="192" y="106" stroke="none">15</text>
        <text fill="black" xml:space="preserve" x="181" y="103" stroke="none">C</text>
        <text font-size="11px" fill="blue" xml:space="preserve" x="322" y="222" stroke="none">16</text>
        <text fill="black" xml:space="preserve" x="311" y="219" stroke="none">C</text>
        <text font-size="11px" fill="blue" xml:space="preserve" x="316" y="213" stroke="none">17</text>
        <text fill="red" xml:space="preserve" x="305" y="210" stroke="none">O</text>
        <text font-size="11px" fill="blue" xml:space="preserve" x="270" y="261" stroke="none">18</text>
        <text fill="black" xml:space="preserve" x="259" y="258" stroke="none">C</text>
        <text font-size="11px" fill="blue" xml:space="preserve" x="312" y="179" stroke="none">19</text>
        <text fill="black" xml:space="preserve" x="301" y="176" stroke="none">C</text>
        <text font-size="11px" fill="blue" xml:space="preserve" x="294" y="133" stroke="none">20</text>
        <text fill="black" xml:space="preserve" x="283" y="130" stroke="none">C</text>
        <text font-size="11px" fill="blue" xml:space="preserve" x="223" y="333" stroke="none">21</text>
        <text fill="black" xml:space="preserve" x="212" y="330" stroke="none">C</text>
        <text font-size="11px" fill="blue" xml:space="preserve" x="56" y="224" stroke="none">22</text>
        <text fill="black" xml:space="preserve" x="45" y="221" stroke="none">C</text>
        <text font-size="11px" fill="blue" xml:space="preserve" x="203" y="58" stroke="none">23</text>
        <text fill="red" xml:space="preserve" x="192" y="55" stroke="none">O</text>
        <text font-size="11px" fill="blue" xml:space="preserve" x="364" y="248" stroke="none">24</text>
        <text fill="red" xml:space="preserve" x="353" y="245" stroke="none">O</text>
        <text font-size="11px" fill="blue" xml:space="preserve" x="366" y="208" stroke="none">25</text>
        <text fill="black" xml:space="preserve" x="355" y="205" stroke="none">C</text>
        <text font-size="11px" fill="blue" xml:space="preserve" x="312" y="288" stroke="none">26</text>
        <text fill="black" xml:space="preserve" x="301" y="285" stroke="none">C</text>
        <text font-size="11px" fill="blue" xml:space="preserve" x="259" y="309" stroke="none">27</text>
        <text fill="red" xml:space="preserve" x="248" y="306" stroke="none">O</text>
        <text font-size="11px" fill="blue" xml:space="preserve" x="360" y="192" stroke="none">28</text>
        <text fill="red" xml:space="preserve" x="349" y="189" stroke="none">O</text>
        <text font-size="11px" fill="blue" xml:space="preserve" x="357" y="265" stroke="none">29</text>
        <text fill="black" xml:space="preserve" x="346" y="262" stroke="none">C</text>
        <text font-size="11px" fill="blue" xml:space="preserve" x="300" y="83" stroke="none">30</text>
        <text fill="red" xml:space="preserve" x="289" y="80" stroke="none">O</text>
        <text font-size="11px" fill="blue" xml:space="preserve" x="220" y="383" stroke="none">31</text>
        <text fill="black" xml:space="preserve" x="209" y="380" stroke="none">C</text>
        <text font-size="11px" fill="blue" xml:space="preserve" x="408" y="224" stroke="none">32</text>
        <text fill="black" xml:space="preserve" x="397" y="221" stroke="none">C</text>
        <text font-size="11px" fill="blue" xml:space="preserve" x="310" y="338" stroke="none">33</text>
        <text fill="red" xml:space="preserve" x="299" y="335" stroke="none">O</text>
        <text font-size="11px" fill="blue" xml:space="preserve" x="248" y="358" stroke="none">34</text>
        <text fill="black" xml:space="preserve" x="237" y="355" stroke="none">C</text>
        <text font-size="11px" fill="blue" xml:space="preserve" x="408" y="205" stroke="none">35</text>
        <text fill="black" xml:space="preserve" x="397" y="202" stroke="none">C</text>
        <text font-size="11px" fill="blue" xml:space="preserve" x="404" y="282" stroke="none">36</text>
        <text fill="red" xml:space="preserve" x="393" y="279" stroke="none">O</text>
        <text font-size="11px" fill="blue" xml:space="preserve" x="295" y="374" stroke="none">37</text>
        <text fill="black" xml:space="preserve" x="284" y="371" stroke="none">C</text>
        <text font-size="11px" fill="blue" xml:space="preserve" x="236" y="407" stroke="none">38</text>
        <text fill="red" xml:space="preserve" x="225" y="404" stroke="none">O</text>
        <text font-size="11px" fill="blue" xml:space="preserve" x="393" y="253" stroke="none">39</text>
        <text fill="black" xml:space="preserve" x="382" y="250" stroke="none">C</text>
        <text font-size="11px" fill="blue" xml:space="preserve" x="457" y="218" stroke="none">40</text>
        <text fill="red" xml:space="preserve" x="446" y="215" stroke="none">O</text>
        <text font-size="11px" fill="blue" xml:space="preserve" x="451" y="298" stroke="none">41</text>
        <text fill="black" xml:space="preserve" x="440" y="295" stroke="none">C</text>
        <text font-size="11px" fill="blue" xml:space="preserve" x="426" y="290" stroke="none">42</text>
        <text fill="black" xml:space="preserve" x="415" y="287" stroke="none">C</text>
        <text font-size="11px" fill="blue" xml:space="preserve" x="344" y="263" stroke="none">43</text>
        <text fill="black" xml:space="preserve" x="333" y="260" stroke="none">C</text>
        <text font-size="11px" fill="blue" xml:space="preserve" x="411" y="338" stroke="none">44</text>
        <text fill="black" xml:space="preserve" x="400" y="335" stroke="none">C</text>
        <text font-size="11px" fill="blue" xml:space="preserve" x="329" y="311" stroke="none">45</text>
        <text fill="black" xml:space="preserve" x="318" y="308" stroke="none">C</text>
        <text font-size="11px" fill="blue" xml:space="preserve" x="362" y="348" stroke="none">46</text>
        <text fill="black" xml:space="preserve" x="351" y="345" stroke="none">C</text>
      </g>
  </g>
</svg>
